# Blender v2.79 (sub 0) OBJ File: 'mayanplate.blend'
# www.blender.org
mtllib mayanplate.mtl
o Cylinder
v -0.000001 -0.106899 -2.796215
v -0.000001 -0.218243 -2.791778
v -0.000001 -0.181401 -2.858608
v 0.545911 -0.104758 -2.742491
v 0.545911 -0.216102 -2.738054
v 0.558653 -0.179210 -2.803629
v 1.070845 -0.098417 -2.583380
v 1.070845 -0.209761 -2.578943
v 1.095838 -0.172722 -2.640805
v 1.554626 -0.088121 -2.324998
v 1.554626 -0.199465 -2.320561
v 1.590910 -0.162185 -2.376394
v 1.978664 -0.074264 -1.977276
v 1.978664 -0.185608 -1.972839
v 2.024845 -0.148005 -2.020555
v 2.326663 -0.057380 -1.553575
v 2.326663 -0.168724 -1.549138
v 2.380966 -0.130727 -1.586965
v 2.585249 -0.038117 -1.070177
v 2.585249 -0.149461 -1.065740
v 2.645588 -0.111014 -1.092285
v 2.744486 -0.017215 -0.545660
v 2.744486 -0.128559 -0.541223
v 2.808541 -0.089624 -0.555527
v 2.798254 0.004522 -0.000181
v 2.798254 -0.106822 0.004256
v 2.863564 -0.067380 0.002684
v 2.744487 0.026258 0.545298
v 2.744487 -0.085086 0.549735
v 2.808542 -0.045136 0.560894
v 2.585250 0.047160 1.069815
v 2.585250 -0.064184 1.074252
v 2.645589 -0.023746 1.097653
v 2.326663 0.066423 1.553213
v 2.326663 -0.044921 1.557650
v 2.380967 -0.004034 1.592333
v 1.978665 0.083307 1.976915
v 1.978665 -0.028037 1.981352
v 2.024846 0.013244 2.025924
v 1.554628 0.097164 2.324637
v 1.554628 -0.014180 2.329074
v 1.590912 0.027424 2.381763
v 1.070846 0.107460 2.583019
v 1.070846 -0.003884 2.587456
v 1.095839 0.037961 2.646175
v 0.545912 0.113800 2.742130
v 0.545912 0.002456 2.746567
v 0.558654 0.044449 2.808999
v 0.000000 0.115941 2.795855
v 0.000000 0.004597 2.800292
v -0.000000 0.046640 2.863978
v -0.545912 0.113800 2.742130
v -0.545912 0.002456 2.746567
v -0.558654 0.044449 2.809000
v -1.070846 0.107460 2.583019
v -1.070846 -0.003884 2.587456
v -1.095839 0.037960 2.646175
v -1.554628 0.097163 2.324637
v -1.554628 -0.014181 2.329074
v -1.590912 0.027424 2.381763
v -1.978665 0.083307 1.976915
v -1.978665 -0.028037 1.981352
v -2.024846 0.013244 2.025924
v -2.326664 0.066422 1.553213
v -2.326664 -0.044922 1.557650
v -2.380967 -0.004035 1.592334
v -2.585251 0.047159 1.069815
v -2.585251 -0.064185 1.074252
v -2.645589 -0.023747 1.097653
v -2.744487 0.026258 0.545297
v -2.744487 -0.085086 0.549734
v -2.808542 -0.045137 0.560894
v -2.798254 0.004521 -0.000182
v -2.798254 -0.106823 0.004255
v -2.863564 -0.067381 0.002683
v -2.744486 -0.017216 -0.545661
v -2.744486 -0.128560 -0.541224
v -2.808541 -0.089625 -0.555528
v -2.585248 -0.038118 -1.070179
v -2.585249 -0.149462 -1.065742
v -2.645587 -0.111015 -1.092287
v -2.326662 -0.057381 -1.553577
v -2.326662 -0.168725 -1.549140
v -2.380965 -0.130727 -1.586966
v -1.978663 -0.074265 -1.977277
v -1.978663 -0.185609 -1.972840
v -2.024844 -0.148006 -2.020557
v -1.554624 -0.088122 -2.325000
v -1.554624 -0.199466 -2.320563
v -1.590909 -0.162185 -2.376395
v -1.070843 -0.098418 -2.583381
v -1.070843 -0.209762 -2.578944
v -1.095836 -0.172722 -2.640807
v -0.545909 -0.104758 -2.742491
v -0.545909 -0.216102 -2.738054
v -0.558650 -0.179210 -2.803630
v -0.000001 -0.074652 -2.832478
v -0.000001 -0.075870 -2.862814
v 0.558653 -0.073679 -2.807835
v 0.552730 -0.072484 -2.778082
v 1.095838 -0.067190 -2.645011
v 1.084220 -0.066064 -2.616984
v 1.590910 -0.056653 -2.380599
v 1.574043 -0.055639 -2.355376
v 2.024845 -0.042473 -2.024761
v 2.003377 -0.041610 -2.003311
v 2.380966 -0.025195 -1.591170
v 2.355723 -0.024514 -1.574317
v 2.645588 -0.005482 -1.096491
v 2.617539 -0.005011 -1.084882
v 2.808541 0.015907 -0.559732
v 2.778765 0.016152 -0.553814
v 2.863564 0.038151 -0.001521
v 2.833205 0.038160 -0.001522
v 2.808542 0.060396 0.556689
v 2.778765 0.060169 0.550771
v 2.645589 0.081785 1.093448
v 2.617540 0.081332 1.081839
v 2.380967 0.101498 1.588128
v 2.355724 0.100835 1.571274
v 2.024846 0.118776 2.021719
v 2.003379 0.117930 2.000268
v 1.590912 0.132956 2.377558
v 1.574045 0.131960 2.352334
v 1.095839 0.143492 2.641970
v 1.084221 0.142385 2.613943
v 0.558654 0.149981 2.804794
v 0.552731 0.148804 2.775041
v -0.000000 0.152171 2.859773
v -0.000000 0.150972 2.829437
v -0.558654 0.149980 2.804794
v -0.552731 0.148804 2.775041
v -1.095839 0.143492 2.641970
v -1.084221 0.142384 2.613943
v -1.590912 0.132955 2.377558
v -1.574045 0.131959 2.352334
v -2.024846 0.118775 2.021719
v -2.003378 0.117930 2.000268
v -2.380967 0.101497 1.588128
v -2.355724 0.100834 1.571274
v -2.645589 0.081784 1.093448
v -2.617540 0.081331 1.081839
v -2.808542 0.060395 0.556689
v -2.778766 0.060168 0.550770
v -2.863564 0.038150 -0.001522
v -2.833205 0.038159 -0.001522
v -2.808541 0.015906 -0.559733
v -2.778765 0.016151 -0.553815
v -2.645587 -0.005483 -1.096492
v -2.617538 -0.005012 -1.084883
v -2.380965 -0.025196 -1.591172
v -2.355722 -0.024515 -1.574319
v -2.024844 -0.042474 -2.024762
v -2.003376 -0.041610 -2.003312
v -1.590909 -0.056654 -2.380600
v -1.574042 -0.055640 -2.355377
v -1.095836 -0.067191 -2.645012
v -1.084218 -0.066065 -2.616986
v -0.558650 -0.073679 -2.807835
v -0.552728 -0.072484 -2.778083
vt 0.598667 0.316169
vt 0.565149 0.316106
vt 0.565149 0.564847
vt 0.598667 0.564909
vt 0.818608 0.140048
vt 0.728323 0.139854
vt 0.728358 0.170386
vt 0.818644 0.170962
vt 0.728428 0.199147
vt 0.818714 0.200082
vt 0.728528 0.225031
vt 0.818816 0.226290
vt 0.728657 0.247044
vt 0.818946 0.248577
vt 1.000000 0.000000
vt 0.909712 0.001258
vt 0.909612 0.027142
vt 0.999898 0.026207
vt 0.909542 0.055903
vt 0.999828 0.055328
vt 0.909507 0.086436
vt 0.999792 0.086241
vt 0.909507 0.117566
vt 0.999792 0.117761
vt 0.909542 0.148099
vt 0.999828 0.148675
vt 0.909612 0.176860
vt 0.999898 0.177795
vt 0.909712 0.202744
vt 1.000000 0.204002
vt 0.909507 0.000000
vt 0.819218 0.001573
vt 0.819103 0.023586
vt 0.909390 0.022288
vt 0.819017 0.049470
vt 0.909303 0.048495
vt 0.818964 0.078231
vt 0.909249 0.077615
vt 0.818946 0.108764
vt 0.909231 0.108529
vt 0.818964 0.139894
vt 0.909249 0.140049
vt 0.819017 0.170427
vt 0.909303 0.170962
vt 0.819103 0.199188
vt 0.909390 0.200083
vt 0.819218 0.225072
vt 0.909507 0.226290
vt 0.351032 0.639526
vt 0.260744 0.641099
vt 0.260628 0.663112
vt 0.350915 0.661814
vt 0.260542 0.688996
vt 0.350828 0.688021
vt 0.260489 0.717757
vt 0.350774 0.717141
vt 0.260471 0.748290
vt 0.350756 0.748055
vt 0.260489 0.779420
vt 0.350774 0.779575
vt 0.260542 0.809953
vt 0.350828 0.810488
vt 0.260628 0.838714
vt 0.350915 0.839609
vt 0.260744 0.864598
vt 0.351032 0.865816
vt 0.818946 0.000000
vt 0.728657 0.001533
vt 0.728528 0.023546
vt 0.818816 0.022288
vt 0.818608 0.108529
vt 0.728323 0.108723
vt 0.006917 0.527586
vt 0.020484 0.556347
vt 0.040181 0.582232
vt 0.065250 0.604244
vt 0.094728 0.621539
vt 0.127482 0.633453
vt 0.162254 0.639526
vt 0.197707 0.639526
vt 0.232479 0.633453
vt 0.265233 0.621540
vt 0.294711 0.604244
vt 0.319780 0.582232
vt 0.339477 0.556347
vt 0.353044 0.527586
vt 0.359961 0.497054
vt 0.359961 0.465923
vt 0.353044 0.435391
vt 0.339477 0.406630
vt 0.319780 0.380746
vt 0.294711 0.358733
vt 0.265233 0.341438
vt 0.232479 0.329525
vt 0.197707 0.323452
vt 0.162254 0.323452
vt 0.127482 0.329525
vt 0.094728 0.341438
vt 0.065249 0.358733
vt 0.040180 0.380746
vt 0.020484 0.406630
vt 0.006916 0.435391
vt 0.000000 0.465924
vt 0.000000 0.497054
vt 0.818644 0.077615
vt 0.728358 0.078191
vt 0.628833 0.316259
vt 0.628833 0.565000
vt 0.563923 0.657831
vt 0.596678 0.657892
vt 0.529565 0.316074
vt 0.529565 0.564815
vt 0.529151 0.657800
vt 0.493285 0.316074
vt 0.493285 0.564815
vt 0.493698 0.657800
vt 0.457701 0.316106
vt 0.457701 0.564847
vt 0.458927 0.657831
vt 0.424182 0.316169
vt 0.424182 0.564909
vt 0.426172 0.657892
vt 0.394016 0.316259
vt 0.394016 0.565000
vt 0.396694 0.657981
vt 0.368362 0.316374
vt 0.368362 0.565115
vt 0.371625 0.658094
vt 0.603179 0.658278
vt 0.573013 0.658188
vt 0.573013 0.906928
vt 0.603179 0.907019
vt 0.571023 0.999911
vt 0.600502 1.000000
vt 0.539494 0.658125
vt 0.539494 0.906866
vt 0.538269 0.999851
vt 0.503911 0.658094
vt 0.503911 0.906834
vt 0.503497 0.999819
vt 0.467631 0.658094
vt 0.467631 0.906834
vt 0.468044 0.999819
vt 0.432047 0.658125
vt 0.432047 0.906866
vt 0.433272 0.999851
vt 0.398528 0.658188
vt 0.398528 0.906928
vt 0.400518 0.999911
vt 0.368362 0.658278
vt 0.368362 0.907019
vt 0.371040 1.000000
vt 0.914959 0.316374
vt 0.889305 0.316259
vt 0.889305 0.565000
vt 0.914959 0.565115
vt 0.886627 0.657981
vt 0.911696 0.658094
vt 0.859139 0.316169
vt 0.859139 0.564909
vt 0.857149 0.657892
vt 0.825620 0.316106
vt 0.825620 0.564847
vt 0.824395 0.657831
vt 0.790036 0.316074
vt 0.790036 0.564815
vt 0.789623 0.657800
vt 0.753756 0.316074
vt 0.753756 0.564815
vt 0.754170 0.657800
vt 0.718172 0.316106
vt 0.718172 0.564847
vt 0.719398 0.657832
vt 0.684654 0.316169
vt 0.684654 0.564909
vt 0.686643 0.657892
vt 0.654488 0.316259
vt 0.654488 0.565000
vt 0.657165 0.657981
vt 0.260471 0.639826
vt 0.234817 0.639711
vt 0.234817 0.888451
vt 0.260471 0.888566
vt 0.232139 0.981432
vt 0.257209 0.981545
vt 0.204651 0.639620
vt 0.204651 0.888361
vt 0.202661 0.981344
vt 0.171132 0.639558
vt 0.171132 0.888298
vt 0.169907 0.981283
vt 0.135549 0.639526
vt 0.135549 0.888266
vt 0.135135 0.981252
vt 0.099268 0.639526
vt 0.099268 0.888266
vt 0.099682 0.981252
vt 0.063685 0.639558
vt 0.063685 0.888298
vt 0.064910 0.981283
vt 0.030166 0.639620
vt 0.030166 0.888361
vt 0.032156 0.981344
vt 0.000000 0.639711
vt 0.000000 0.888451
vt 0.002678 0.981432
vt 0.654487 0.316374
vt 0.654487 0.565115
vt 0.626155 0.657981
vt 0.651225 0.658094
vt 0.818714 0.048495
vt 0.728428 0.049430
vt 0.375279 0.204135
vt 0.388846 0.232896
vt 0.408542 0.258780
vt 0.433612 0.280793
vt 0.463090 0.298088
vt 0.495844 0.310001
vt 0.530616 0.316074
vt 0.566069 0.316074
vt 0.600841 0.310001
vt 0.633595 0.298088
vt 0.663073 0.280793
vt 0.688142 0.258780
vt 0.707839 0.232896
vt 0.721406 0.204135
vt 0.728323 0.173603
vt 0.728323 0.142472
vt 0.721406 0.111939
vt 0.707839 0.083179
vt 0.688142 0.057294
vt 0.663073 0.035282
vt 0.633595 0.017986
vt 0.600841 0.006073
vt 0.566069 0.000000
vt 0.530616 0.000000
vt 0.495844 0.006073
vt 0.463090 0.017986
vt 0.433612 0.035282
vt 0.408543 0.057294
vt 0.388846 0.083179
vt 0.375279 0.111939
vt 0.368362 0.142472
vt 0.368362 0.173603
vt 0.096939 0.305045
vt 0.097864 0.303526
vt 0.068017 0.286015
vt 0.066773 0.287346
vt 0.042635 0.263727
vt 0.041118 0.264820
vt 0.022692 0.237520
vt 0.020962 0.238332
vt 0.008956 0.208399
vt 0.007078 0.208900
vt 0.001953 0.177486
vt 0.000000 0.177654
vt 0.001953 0.145966
vt 0.000000 0.145797
vt 0.008956 0.115052
vt 0.007078 0.114552
vt 0.022692 0.085932
vt 0.020962 0.085120
vt 0.042635 0.059725
vt 0.041118 0.058632
vt 0.068017 0.037437
vt 0.066772 0.036105
vt 0.097863 0.019926
vt 0.096939 0.018406
vt 0.131027 0.007864
vt 0.130457 0.006215
vt 0.166233 0.001715
vt 0.166041 0.000000
vt 0.202129 0.001715
vt 0.202321 0.000000
vt 0.237335 0.007864
vt 0.237905 0.006215
vt 0.270498 0.019926
vt 0.271423 0.018406
vt 0.300345 0.037437
vt 0.301590 0.036105
vt 0.325727 0.059725
vt 0.327244 0.058632
vt 0.345670 0.085932
vt 0.347400 0.085120
vt 0.359406 0.115052
vt 0.361284 0.114552
vt 0.366409 0.145966
vt 0.368362 0.145797
vt 0.366409 0.177485
vt 0.368362 0.177654
vt 0.359406 0.208399
vt 0.361284 0.208899
vt 0.345670 0.237519
vt 0.347400 0.238332
vt 0.325727 0.263727
vt 0.327244 0.264820
vt 0.300345 0.286015
vt 0.301590 0.287346
vt 0.270498 0.303526
vt 0.271423 0.305045
vt 0.237335 0.315588
vt 0.237905 0.317237
vt 0.202129 0.321737
vt 0.202321 0.323452
vt 0.166233 0.321737
vt 0.166041 0.323451
vt 0.131027 0.315588
vt 0.130457 0.317236
vn 0.0980 -0.0396 -0.9944
vn -0.4412 0.7394 0.5086
vn -0.5376 0.7355 0.4122
vn -0.6134 0.7310 0.2990
vn -0.6655 0.7260 0.1731
vn -0.6921 0.7207 0.0395
vn -0.6921 0.7153 -0.0967
vn -0.6655 0.7099 -0.2303
vn -0.6134 0.7049 -0.3562
vn -0.5376 0.7004 -0.4695
vn -0.4412 0.6966 -0.5658
vn -0.3278 0.6936 -0.6415
vn -0.2019 0.6915 -0.6936
vn -0.0682 0.6904 -0.7202
vn 0.0682 0.6904 -0.7202
vn 0.2019 0.6915 -0.6936
vn 0.3278 0.6936 -0.6415
vn 0.4412 0.6966 -0.5658
vn 0.5376 0.7004 -0.4695
vn 0.6134 0.7049 -0.3562
vn 0.6655 0.7099 -0.2303
vn 0.6921 0.7153 -0.0967
vn 0.6921 0.7207 0.0395
vn 0.6655 0.7260 0.1731
vn 0.6134 0.7310 0.2990
vn 0.5376 0.7355 0.4122
vn 0.4412 0.7394 0.5086
vn 0.3278 0.7424 0.5843
vn 0.2019 0.7445 0.6364
vn -0.3278 0.7424 0.5843
vn 0.0000 -0.9992 0.0398
vn -0.2019 0.7445 0.6364
vn -0.0980 -0.0396 -0.9944
vn 0.0509 -0.8746 -0.4822
vn 0.2903 -0.0381 -0.9562
vn 0.1507 -0.8738 -0.4623
vn 0.4714 -0.0351 -0.8812
vn 0.2447 -0.8723 -0.4234
vn 0.6344 -0.0308 -0.7724
vn 0.3293 -0.8700 -0.3669
vn 0.7730 -0.0253 -0.6339
vn 0.4013 -0.8672 -0.2950
vn 0.8819 -0.0188 -0.4710
vn 0.4578 -0.8638 -0.2105
vn 0.9569 -0.0116 -0.2901
vn 0.4967 -0.8600 -0.1165
vn 0.9952 -0.0039 -0.0979
vn 0.5166 -0.8561 -0.0168
vn 0.9952 0.0039 0.0979
vn 0.5166 -0.8520 0.0849
vn 0.9569 0.0116 0.2901
vn 0.4967 -0.8480 0.1846
vn 0.8819 0.0188 0.4710
vn 0.4578 -0.8443 0.2785
vn 0.7730 0.0253 0.6339
vn 0.4013 -0.8409 0.3631
vn 0.6344 0.0308 0.7724
vn 0.3293 -0.8381 0.4350
vn 0.4714 0.0351 0.8812
vn 0.2447 -0.8358 0.4915
vn 0.2903 0.0381 0.9562
vn 0.1507 -0.8343 0.5304
vn 0.0980 0.0396 0.9944
vn 0.0509 -0.8335 0.5502
vn -0.0980 0.0396 0.9944
vn -0.0509 -0.8335 0.5502
vn -0.2903 0.0381 0.9562
vn -0.1507 -0.8343 0.5304
vn -0.4714 0.0351 0.8812
vn -0.2447 -0.8358 0.4915
vn -0.6344 0.0308 0.7724
vn -0.3293 -0.8381 0.4350
vn -0.7730 0.0253 0.6339
vn -0.4013 -0.8409 0.3631
vn -0.8819 0.0188 0.4710
vn -0.4578 -0.8443 0.2785
vn -0.9569 0.0116 0.2901
vn -0.4967 -0.8480 0.1846
vn -0.9952 0.0039 0.0979
vn -0.5166 -0.8520 0.0849
vn -0.9952 -0.0039 -0.0979
vn -0.5166 -0.8561 -0.0168
vn -0.9569 -0.0116 -0.2901
vn -0.4967 -0.8600 -0.1165
vn -0.8819 -0.0188 -0.4710
vn -0.4578 -0.8638 -0.2105
vn -0.7730 -0.0253 -0.6339
vn -0.4013 -0.8672 -0.2950
vn -0.6344 -0.0308 -0.7724
vn -0.3293 -0.8700 -0.3669
vn -0.4714 -0.0351 -0.8812
vn -0.2447 -0.8723 -0.4234
vn -0.2903 -0.0381 -0.9562
vn -0.1507 -0.8738 -0.4623
vn -0.0682 0.7455 0.6630
vn -0.0509 -0.8746 -0.4822
vn -0.0000 0.9992 -0.0398
vn 0.0000 0.9992 -0.0401
vn 0.0001 0.9992 -0.0401
vn 0.0002 0.9992 -0.0400
vn 0.0003 0.9992 -0.0400
vn 0.0003 0.9992 -0.0399
vn 0.0003 0.9992 -0.0398
vn 0.0003 0.9992 -0.0397
vn 0.0002 0.9992 -0.0396
vn 0.0001 0.9992 -0.0396
vn 0.0001 0.9992 -0.0395
vn 0.0000 0.9992 -0.0395
vn -0.0001 0.9992 -0.0395
vn -0.0001 0.9992 -0.0396
vn -0.0002 0.9992 -0.0396
vn -0.0003 0.9992 -0.0397
vn -0.0003 0.9992 -0.0398
vn -0.0003 0.9992 -0.0399
vn -0.0003 0.9992 -0.0400
vn -0.0002 0.9992 -0.0400
vn -0.0001 0.9992 -0.0401
vn 0.0682 0.7455 0.6630
usemtl None
s off
f 98/1/1 99/2/1 6/3/1 3/4/1
f 104/5/2 10/6/2 13/7/2 106/8/2
f 106/8/3 13/7/3 16/9/3 108/10/3
f 108/10/4 16/9/4 19/11/4 110/12/4
f 110/12/5 19/11/5 22/13/5 112/14/5
f 112/15/6 22/16/6 25/17/6 114/18/6
f 114/18/7 25/17/7 28/19/7 116/20/7
f 116/20/8 28/19/8 31/21/8 118/22/8
f 118/22/9 31/21/9 34/23/9 120/24/9
f 120/24/10 34/23/10 37/25/10 122/26/10
f 122/26/11 37/25/11 40/27/11 124/28/11
f 124/28/12 40/27/12 43/29/12 126/30/12
f 126/31/13 43/32/13 46/33/13 128/34/13
f 128/34/14 46/33/14 49/35/14 130/36/14
f 130/36/15 49/35/15 52/37/15 132/38/15
f 132/38/16 52/37/16 55/39/16 134/40/16
f 134/40/17 55/39/17 58/41/17 136/42/17
f 136/42/18 58/41/18 61/43/18 138/44/18
f 138/44/19 61/43/19 64/45/19 140/46/19
f 140/46/20 64/45/20 67/47/20 142/48/20
f 142/49/21 67/50/21 70/51/21 144/52/21
f 144/52/22 70/51/22 73/53/22 146/54/22
f 146/54/23 73/53/23 76/55/23 148/56/23
f 148/56/24 76/55/24 79/57/24 150/58/24
f 150/58/25 79/57/25 82/59/25 152/60/25
f 152/60/26 82/59/26 85/61/26 154/62/26
f 154/62/27 85/61/27 88/63/27 156/64/27
f 156/64/28 88/63/28 91/65/28 158/66/28
f 158/67/29 91/68/29 94/69/29 160/70/29
f 102/71/30 7/72/30 10/6/30 104/5/30
f 5/73/31 8/74/31 11/75/31 14/76/31 17/77/31 20/78/31 23/79/31 26/80/31 29/81/31 32/82/31 35/83/31 38/84/31 41/85/31 44/86/31 47/87/31 50/88/31 53/89/31 56/90/31 59/91/31 62/92/31 65/93/31 68/94/31 71/95/31 74/96/31 77/97/31 80/98/31 83/99/31 86/100/31 89/101/31 92/102/31 95/103/31 2/104/31
f 100/105/32 4/106/32 7/72/32 102/71/32
f 159/107/33 98/1/33 3/4/33 96/108/33
f 6/3/34 5/109/34 2/110/34 3/4/34
f 99/2/35 101/111/35 9/112/35 6/3/35
f 9/112/36 8/113/36 5/109/36 6/3/36
f 101/111/37 103/114/37 12/115/37 9/112/37
f 12/115/38 11/116/38 8/113/38 9/112/38
f 103/114/39 105/117/39 15/118/39 12/115/39
f 15/118/40 14/119/40 11/116/40 12/115/40
f 105/117/41 107/120/41 18/121/41 15/118/41
f 18/121/42 17/122/42 14/119/42 15/118/42
f 107/120/43 109/123/43 21/124/43 18/121/43
f 21/124/44 20/125/44 17/122/44 18/121/44
f 109/123/45 111/126/45 24/127/45 21/124/45
f 24/127/46 23/128/46 20/125/46 21/124/46
f 111/129/47 113/130/47 27/131/47 24/132/47
f 27/131/48 26/133/48 23/134/48 24/132/48
f 113/130/49 115/135/49 30/136/49 27/131/49
f 30/136/50 29/137/50 26/133/50 27/131/50
f 115/135/51 117/138/51 33/139/51 30/136/51
f 33/139/52 32/140/52 29/137/52 30/136/52
f 117/138/53 119/141/53 36/142/53 33/139/53
f 36/142/54 35/143/54 32/140/54 33/139/54
f 119/141/55 121/144/55 39/145/55 36/142/55
f 39/145/56 38/146/56 35/143/56 36/142/56
f 121/144/57 123/147/57 42/148/57 39/145/57
f 42/148/58 41/149/58 38/146/58 39/145/58
f 123/147/59 125/150/59 45/151/59 42/148/59
f 45/151/60 44/152/60 41/149/60 42/148/60
f 125/153/61 127/154/61 48/155/61 45/156/61
f 48/155/62 47/157/62 44/158/62 45/156/62
f 127/154/63 129/159/63 51/160/63 48/155/63
f 51/160/64 50/161/64 47/157/64 48/155/64
f 129/159/65 131/162/65 54/163/65 51/160/65
f 54/163/66 53/164/66 50/161/66 51/160/66
f 131/162/67 133/165/67 57/166/67 54/163/67
f 57/166/68 56/167/68 53/164/68 54/163/68
f 133/165/69 135/168/69 60/169/69 57/166/69
f 60/169/70 59/170/70 56/167/70 57/166/70
f 135/168/71 137/171/71 63/172/71 60/169/71
f 63/172/72 62/173/72 59/170/72 60/169/72
f 137/171/73 139/174/73 66/175/73 63/172/73
f 66/175/74 65/176/74 62/173/74 63/172/74
f 139/174/75 141/177/75 69/178/75 66/175/75
f 69/178/76 68/179/76 65/176/76 66/175/76
f 141/180/77 143/181/77 72/182/77 69/183/77
f 72/182/78 71/184/78 68/185/78 69/183/78
f 143/181/79 145/186/79 75/187/79 72/182/79
f 75/187/80 74/188/80 71/184/80 72/182/80
f 145/186/81 147/189/81 78/190/81 75/187/81
f 78/190/82 77/191/82 74/188/82 75/187/82
f 147/189/83 149/192/83 81/193/83 78/190/83
f 81/193/84 80/194/84 77/191/84 78/190/84
f 149/192/85 151/195/85 84/196/85 81/193/85
f 84/196/86 83/197/86 80/194/86 81/193/86
f 151/195/87 153/198/87 87/199/87 84/196/87
f 87/199/88 86/200/88 83/197/88 84/196/88
f 153/198/89 155/201/89 90/202/89 87/199/89
f 90/202/90 89/203/90 86/200/90 87/199/90
f 155/201/91 157/204/91 93/205/91 90/202/91
f 93/205/92 92/206/92 89/203/92 90/202/92
f 157/207/93 159/107/93 96/108/93 93/208/93
f 96/108/94 95/209/94 92/210/94 93/208/94
f 97/211/95 1/212/95 4/106/95 100/105/95
f 3/4/96 2/110/96 95/209/96 96/108/96
f 1/213/97 94/214/97 91/215/97 88/216/97 85/217/97 82/218/97 79/219/97 76/220/97 73/221/97 70/222/97 67/223/97 64/224/97 61/225/97 58/226/97 55/227/97 52/228/97 49/229/97 46/230/97 43/231/97 40/232/97 37/233/97 34/234/97 31/235/97 28/236/97 25/237/97 22/238/97 19/239/97 16/240/97 13/241/97 10/242/97 7/243/97 4/244/97
f 98/245/98 97/246/98 100/247/98 99/248/98
f 99/248/99 100/247/99 102/249/99 101/250/99
f 101/250/99 102/249/99 104/251/99 103/252/99
f 103/252/100 104/251/100 106/253/100 105/254/100
f 105/254/100 106/253/100 108/255/100 107/256/100
f 107/256/101 108/255/101 110/257/101 109/258/101
f 109/258/102 110/257/102 112/259/102 111/260/102
f 111/260/103 112/259/103 114/261/103 113/262/103
f 113/262/103 114/261/103 116/263/103 115/264/103
f 115/264/104 116/263/104 118/265/104 117/266/104
f 117/266/104 118/265/104 120/267/104 119/268/104
f 119/268/105 120/267/105 122/269/105 121/270/105
f 121/270/105 122/269/105 124/271/105 123/272/105
f 123/272/106 124/271/106 126/273/106 125/274/106
f 125/274/107 126/273/107 128/275/107 127/276/107
f 127/276/108 128/275/108 130/277/108 129/278/108
f 129/278/108 130/277/108 132/279/108 131/280/108
f 131/280/109 132/279/109 134/281/109 133/282/109
f 133/282/110 134/281/110 136/283/110 135/284/110
f 135/284/111 136/283/111 138/285/111 137/286/111
f 137/286/111 138/285/111 140/287/111 139/288/111
f 139/288/112 140/287/112 142/289/112 141/290/112
f 141/290/112 142/289/112 144/291/112 143/292/112
f 143/292/113 144/291/113 146/293/113 145/294/113
f 145/294/113 146/293/113 148/295/113 147/296/113
f 147/296/114 148/295/114 150/297/114 149/298/114
f 149/298/115 150/297/115 152/299/115 151/300/115
f 151/300/116 152/299/116 154/301/116 153/302/116
f 153/302/116 154/301/116 156/303/116 155/304/116
f 155/304/117 156/303/117 158/305/117 157/306/117
f 157/306/117 158/305/117 160/307/117 159/308/117
f 159/308/98 160/307/98 97/246/98 98/245/98
f 160/70/118 94/69/118 1/212/118 97/211/118
